<svg width="48" height="48" viewBox="0 0 48 48" fill="none" xmlns="http://www.w3.org/2000/svg">
<path d="M24 32.8623C23.5684 32.8623 23.1865 32.6963 22.8711 32.3809L10.0215 19.2324C9.73926 18.9336 9.57324 18.5684 9.57324 18.1533C9.57324 17.29 10.2207 16.626 11.084 16.626C11.5156 16.626 11.8975 16.792 12.1631 17.0576L24 29.1436L35.8203 17.0576C36.1025 16.792 36.4844 16.626 36.8994 16.626C37.7627 16.626 38.4102 17.29 38.4102 18.1533C38.4102 18.5684 38.2441 18.9336 37.9619 19.2158L25.1123 32.3809C24.8301 32.6963 24.415 32.8623 24 32.8623Z" fill="#1E1D1B" fill-opacity="0.65098"/>
</svg>
