<svg width="39" height="39" viewBox="0 0 39 39" fill="none" xmlns="http://www.w3.org/2000/svg">
<path fill-rule="evenodd" clip-rule="evenodd" d="M10.5 1.5H28.5C33.5 1.5 37.5 5.5 37.5 10.5V28.5C37.5 33.5 33.5 37.5 28.5 37.5H10.5C5.5 37.5 1.5 33.5 1.5 28.5V10.5C1.5 5.5 5.5 1.5 10.5 1.5Z" stroke="white" stroke-width="1.5" stroke-linecap="round" stroke-linejoin="round"/>
<path d="M29.5 8.9C29.1 8.9 28.9 9.3 28.9 9.5C28.9 9.9 29.3 10.1 29.5 10.1C29.9 10.1 30.1 9.7 30.1 9.5C30.1 9.3 29.9 8.9 29.5 8.9" stroke="white" stroke-width="1.5" stroke-linecap="round" stroke-linejoin="round"/>
<circle cx="19.4998" cy="19.4998" r="7.2" stroke="white" stroke-width="1.5" stroke-linecap="round" stroke-linejoin="round"/>
</svg>
