<svg width="251" height="64" viewBox="0 0 251 64" fill="none" xmlns="http://www.w3.org/2000/svg">
<path d="M3.90177 50.1305C3.90177 54.5394 7.48816 58.1269 11.893 58.1269H44.4106C45.488 58.1271 46.3612 59.0012 46.3612 60.0786C46.3612 61.1557 45.4883 62.0301 44.4106 62.0303H11.893C5.3345 62.0303 0.000488281 56.692 0.000488281 50.1305V2.92335C0.000618766 1.8464 0.873363 0.971911 1.95113 0.97168C3.02915 0.97168 3.90164 1.84617 3.90177 2.92335V50.1305Z" fill="url(#paint0_linear_40001362_5903)"/>
<path d="M98.913 43.7234C98.9128 35.7815 92.4555 29.3194 84.5203 29.3194C76.585 29.3194 70.1267 35.7816 70.1266 43.7234C70.1266 51.6654 76.5848 58.1275 84.5203 58.1275C92.4555 58.1274 98.913 51.6655 98.913 43.7234ZM105.861 32C105.861 16.5077 93.2641 3.90334 77.7838 3.90334C62.3035 3.90343 49.7077 16.5079 49.7077 32C49.7078 47.0267 61.5584 59.3356 76.3971 60.0616C70.383 57.0719 66.2253 50.8957 66.2253 43.7234C66.2254 33.6287 74.4314 25.4171 84.5203 25.4171C94.6092 25.4171 102.815 33.6286 102.815 43.7234C102.815 44.0708 102.799 44.414 102.775 44.7534C104.742 40.9239 105.861 36.5931 105.861 32ZM109.762 32C109.762 49.6447 95.4178 64 77.7838 64C60.1498 63.9999 45.8055 49.6448 45.8054 32C45.8054 14.3551 60.1498 8.19596e-05 77.7838 0C95.4178 0 109.762 14.3552 109.762 32Z" fill="url(#paint1_linear_40001362_5903)"/>
<path d="M246.938 32C246.938 16.5077 234.341 3.90334 218.861 3.90334C203.381 3.9035 190.785 16.5079 190.785 32C190.785 47.492 203.381 60.0965 218.861 60.0967C234.341 60.0967 246.938 47.4923 246.938 32ZM250.839 32C250.839 49.6447 236.495 64 218.861 64C201.227 63.9998 186.883 49.6448 186.883 32C186.883 14.3552 201.227 0.00015736 218.861 0C236.495 0 250.839 14.3552 250.839 32Z" fill="url(#paint2_linear_40001362_5903)"/>
<path d="M175.976 60.079C175.976 60.8886 175.475 61.6138 174.718 61.9018C174.548 61.9665 174.374 62.0068 174.199 62.0225L174.025 62.0307C173.479 62.0309 172.944 61.8002 172.566 61.375L126.403 9.41289V60.079C126.403 61.156 125.531 62.0307 124.453 62.0307C123.375 62.0305 122.502 61.1562 122.502 60.079V4.27957C122.502 3.47015 123.003 2.74367 123.76 2.45574C124.518 2.16653 125.374 2.37867 125.912 2.98361L172.073 54.9437V4.27957C172.074 3.20245 172.946 2.32917 174.024 2.32893C175.101 2.32893 175.976 3.20208 175.976 4.27957V60.079Z" fill="url(#paint3_linear_40001362_5903)"/>
<defs>
<linearGradient id="paint0_linear_40001362_5903" x1="36.4009" y1="61.9394" x2="-0.184358" y2="1.17388" gradientUnits="userSpaceOnUse">
<stop stop-color="#B9915E"/>
<stop offset="1" stop-color="#F7C7C7"/>
</linearGradient>
<linearGradient id="paint1_linear_40001362_5903" x1="96.0214" y1="63.9048" x2="63.193" y2="-7.85871" gradientUnits="userSpaceOnUse">
<stop stop-color="#B9915E"/>
<stop offset="1" stop-color="#F7C7C7"/>
</linearGradient>
<linearGradient id="paint2_linear_40001362_5903" x1="237.099" y1="63.9048" x2="204.27" y2="-7.85871" gradientUnits="userSpaceOnUse">
<stop stop-color="#B9915E"/>
<stop offset="1" stop-color="#F7C7C7"/>
</linearGradient>
<linearGradient id="paint3_linear_40001362_5903" x1="164.487" y1="61.9419" x2="131.708" y2="-2.28171" gradientUnits="userSpaceOnUse">
<stop stop-color="#B9915E"/>
<stop offset="1" stop-color="#F7C7C7"/>
</linearGradient>
</defs>
</svg>
