<svg width="48" height="48" viewBox="0 0 48 48" fill="none" xmlns="http://www.w3.org/2000/svg">
<g clip-path="url(#clip0_0_11)">
<path d="M24 23.8984C19.3516 23.8984 15.5625 19.7969 15.5625 14.7773C15.5625 9.81641 19.3711 5.8125 24 5.8125C28.668 5.8125 32.4375 9.73828 32.4375 14.7383C32.4375 19.7773 28.6484 23.8984 24 23.8984ZM24 20.9492C26.8711 20.9492 29.293 18.1953 29.293 14.7383C29.293 11.3203 26.9102 8.76172 24 8.76172C21.1094 8.76172 18.707 11.3789 18.707 14.7773C18.707 18.2344 21.1484 20.9492 24 20.9492ZM11.7148 41.9844C8.47266 41.9844 6.92969 41.0078 6.92969 38.8594C6.92969 33.7422 13.3945 26.3398 24 26.3398C34.5859 26.3398 41.0508 33.7422 41.0508 38.8594C41.0508 41.0078 39.5078 41.9844 36.2656 41.9844H11.7148ZM10.7969 39.0352H37.2031C37.7109 39.0352 37.9062 38.8984 37.9062 38.4883C37.9062 35.2656 32.9453 29.2891 24 29.2891C15.0352 29.2891 10.0742 35.2656 10.0742 38.4883C10.0742 38.8984 10.2891 39.0352 10.7969 39.0352Z" fill="#1E1D1B" fill-opacity="0.65098"/>
</g>
<defs>
<clipPath id="clip0_0_11">
<rect width="24" height="24" fill="white" transform="scale(2)"/>
</clipPath>
</defs>
</svg>
