<svg width="48" height="48" viewBox="0 0 48 48" fill="none" xmlns="http://www.w3.org/2000/svg">
<g clip-path="url(#clip0_0_11)">
<path d="M4.91797 20.2266C4.91797 11.6328 11.9102 4.64062 20.5039 4.64062C29.0977 4.64062 36.0898 11.6328 36.0898 20.2266C36.0898 23.7812 34.8984 27.043 32.8867 29.6602L42.4375 39.2695C42.8477 39.6797 43.082 40.2461 43.082 40.8711C43.082 42.1797 42.1641 43.1758 40.8359 43.1758C40.2109 43.1758 39.625 42.9609 39.1758 42.5117L29.5664 32.8828C27.0078 34.7188 23.9023 35.8125 20.5039 35.8125C11.9102 35.8125 4.91797 28.8203 4.91797 20.2266ZM8.25781 20.2266C8.25781 26.9844 13.7461 32.4727 20.5039 32.4727C27.2617 32.4727 32.75 26.9844 32.75 20.2266C32.75 13.4688 27.2617 7.98047 20.5039 7.98047C13.7461 7.98047 8.25781 13.4688 8.25781 20.2266Z" fill="#1E1D1B" fill-opacity="0.65098"/>
</g>
<defs>
<clipPath id="clip0_0_11">
<rect width="24" height="24" fill="white" transform="scale(2)"/>
</clipPath>
</defs>
</svg>
